<svg width="1440" height="1024" viewBox="0 0 1440 1024" fill="none" xmlns="http://www.w3.org/2000/svg">
<rect width="1440" height="1024" fill="#0A6ADB"/>
<mask id="mask0_443_1798" style="mask-type:luminance" maskUnits="userSpaceOnUse" x="0" y="0" width="1440" height="1024">
<rect width="1440" height="1024" fill="white"/>
</mask>
<g mask="url(#mask0_443_1798)">
<path d="M-1.75169 999.034C-1.75169 999.034 296.104 1039.44 444.668 843.764C593.231 648.091 787.362 625.509 787.362 625.509C787.362 625.509 1079.5 647.548 1135.4 79.7862C1191.3 -487.976 1602 -12.6565 1602 -12.6565L1577.05 1160.12L-109 1264.72L-1.75169 999.034Z" fill="#1278F1"/>
<path d="M2119.89 123.784L1530.53 1809.73L963.212 1488.02C963.212 1488.02 990.339 1128.63 1175.68 598.433C1361.02 68.2398 1552.57 -197.919 1552.57 -197.919L2119.89 123.784Z" fill="#1278F1"/>
</g>
</svg>
